HIERARCHY
ROOT Hips
{
    OFFSET 0.000000 0.000000 0.000000
    CHANNELS 6 Xposition Yposition Zposition Zrotation Xrotation Yrotation
    JOINT Spine
    {
        OFFSET -0.000000 14.517291 0.000000
        CHANNELS 3 Zrotation Xrotation Yrotation
        JOINT Spine1
        {
            OFFSET -0.000000 37.558300 0.000000
            CHANNELS 3 Zrotation Xrotation Yrotation
            JOINT Neck
            {
                OFFSET -0.000000 37.404057 3.400369
                CHANNELS 3 Zrotation Xrotation Yrotation
                JOINT Head
                {
                    OFFSET -0.000000 24.785618 -3.540803
                    CHANNELS 3 Zrotation Xrotation Yrotation
                    End Site
                    {
                        OFFSET -0.000000 35.408028 0.000000
                    }
                }
            }
            JOINT LeftShoulder
            {
                OFFSET 6.992933 33.973492 -0.192664
                CHANNELS 3 Zrotation Xrotation Yrotation
                JOINT LeftArm
                {
                    OFFSET 21.527611 0.000000 0.000000
                    CHANNELS 3 Zrotation Xrotation Yrotation
                    JOINT LeftForeArm
                    {
                        OFFSET 56.353916 0.000000 0.000000
                        CHANNELS 3 Zrotation Xrotation Yrotation
                        JOINT LeftHand
                        {
                            OFFSET 47.774071 0.000000 0.000000
                            CHANNELS 3 Zrotation Xrotation Yrotation
                            End Site
                            {
                                OFFSET 26.556021 0.000000 0.000000
                            }
                        }
                    }
                }
            }
            JOINT RightShoulder
            {
                OFFSET -7.065357 33.973492 -0.192664
                CHANNELS 3 Zrotation Xrotation Yrotation
                JOINT RightArm
                {
                    OFFSET -21.527611 0.000000 0.000000
                    CHANNELS 3 Zrotation Xrotation Yrotation
                    JOINT RightForeArm
                    {
                        OFFSET -56.353916 0.000000 0.000000
                        CHANNELS 3 Zrotation Xrotation Yrotation
                        JOINT RightHand
                        {
                            OFFSET -47.774071 0.000000 0.000000
                            CHANNELS 3 Zrotation Xrotation Yrotation
                            End Site
                            {
                                OFFSET -26.556021 0.000000 0.000000
                            }
                        }
                    }
                }
            }
        }
    }
    JOINT LeftUpLeg
    {
        OFFSET 17.704014 0.000000 0.000000
        CHANNELS 3 Zrotation Xrotation Yrotation
        JOINT LeftLeg
        {
            OFFSET -0.000000 -81.181816 0.000000
            CHANNELS 3 Zrotation Xrotation Yrotation
            JOINT LeftFoot
            {
                OFFSET -0.000000 -62.821102 0.000000
                CHANNELS 3 Zrotation Xrotation Yrotation
                JOINT LeftToeBase
                {
                    OFFSET -0.000000 -11.507608 26.556021
                    CHANNELS 3 Zrotation Xrotation Yrotation
                    End Site
                    {
                        OFFSET -0.000000 0.000000 7.081605
                    }
                }
            }
        }
    }
    JOINT RightUpLeg
    {
        OFFSET -17.704014 0.000000 0.000000
        CHANNELS 3 Zrotation Xrotation Yrotation
        JOINT RightLeg
        {
            OFFSET -0.000000 -81.181816 0.000000
            CHANNELS 3 Zrotation Xrotation Yrotation
            JOINT RightFoot
            {
                OFFSET -0.000000 -62.821102 0.000000
                CHANNELS 3 Zrotation Xrotation Yrotation
                JOINT RightToeBase
                {
                    OFFSET -0.000000 -11.507608 26.556021
                    CHANNELS 3 Zrotation Xrotation Yrotation
                    End Site
                    {
                        OFFSET -0.000000 0.000000 7.081605
                    }
                }
            }
        }
    }
}
MOTION
Frames:    12
Frame Time:    0.008333
24.771324    146.348495    48.456551    5.139071    3.114093    -60.988670    -0.436004    -1.028762    -0.058223    1.165655    0.373290    -0.024122    20.478447    7.298244    20.522005    -16.248215    2.115919    17.719784    13.262751    0.018926    -16.024570    -1.775999    -9.866481    -20.937471    -5.182022    -0.872430    -87.941048    -3.200974    -5.129248    -26.074432    -4.699463    6.591957    -6.281358    19.333090    11.723649    38.916126    49.883202    10.996351    53.811493    13.212335    -12.837329    29.960861    36.948093    -23.239174    30.413656    -30.275232    41.599335    5.430563    -0.144229    -13.246056    43.879620    0.000000    0.000000    0.000000    -30.345726    -12.735337    -17.928173    4.172408    32.649265    -6.739013    19.643110    -10.851332    6.936327    0.000000    0.000000    0.000000    
24.748920    146.349075    48.463387    5.133364    3.113839    -60.996353    -0.434590    -1.028281    -0.053621    1.168298    0.381561    -0.024814    20.464798    7.297397    20.523569    -16.246429    2.107661    17.721498    13.253926    0.016378    -16.015139    -1.770738    -9.884115    -20.939577    -5.192710    -0.849936    -87.934044    -3.183606    -5.121075    -26.056194    -4.705120    6.591016    -6.283640    19.337837    11.724961    38.933456    49.878956    10.999392    53.836308    13.228274    -12.840483    29.977070    36.951569    -23.222973    30.404129    -30.285622    41.595177    5.440023    -0.136620    -13.244898    43.886978    0.000000    0.000000    0.000000    -30.343880    -12.724175    -17.964151    4.144743    32.640736    -6.710493    19.566883    -10.805662    7.047835    0.000000    0.000000    0.000000    
24.729548    146.353592    48.467167    5.133760    3.119523    -61.004791    -0.432259    -1.035971    -0.053654    1.168651    0.387958    -0.024014    20.481256    7.307798    20.532398    -16.281483    2.108527    17.727272    13.259975    0.012957    -16.007637    -1.782138    -9.907655    -20.936440    -5.214350    -0.815719    -87.927574    -3.183205    -5.107817    -26.046621    -4.701881    6.605577    -6.281113    19.321421    11.745012    38.953960    49.842186    10.997142    53.905464    13.196349    -12.869827    29.974537    36.958466    -23.215380    30.390779    -30.294449    41.588428    5.467056    -0.157903    -13.257854    43.883865    0.000000    0.000000    0.000000    -30.332554    -12.719586    -17.997957    4.126705    32.635860    -6.717750    19.654682    -10.817765    7.014191    0.000000    0.000000    0.000000    
24.711895    146.356903    48.470459    5.135784    3.118808    -61.014538    -0.432112    -1.036567    -0.051527    1.164264    0.389394    -0.021113    20.465385    7.299134    20.528049    -16.270477    2.113463    17.724434    13.258964    0.011824    -16.000652    -1.777609    -9.900158    -20.928579    -5.214242    -0.817669    -87.927711    -3.182959    -5.110014    -26.038536    -4.701573    6.604575    -6.276120    19.323097    11.755052    38.956718    49.830193    11.005009    53.950134    13.198534    -12.877542    30.001411    36.959538    -23.209846    30.394972    -30.289135    41.595798    5.475128    -0.182294    -13.274267    43.893951    0.000000    0.000000    0.000000    -30.331406    -12.716537    -18.024103    4.108234    32.630463    -6.719140    19.668777    -10.799523    7.070999    0.000000    0.000000    0.000000    
24.691751    146.362015    48.473202    5.138162    3.119440    -61.026772    -0.445747    -1.047653    -0.036321    1.184832    0.399660    -0.020107    20.467031    7.314810    20.526657    -16.301987    2.101091    17.720291    13.245921    0.010721    -16.012154    -1.772056    -9.880076    -20.912899    -5.200454    -0.836520    -87.933243    -3.186279    -5.114948    -26.047684    -4.714141    6.610952    -6.280311    19.331007    11.761789    38.966991    49.814903    11.003958    53.997341    13.199410    -12.897539    29.997240    36.959915    -23.194584    30.387709    -30.292244    41.581928    5.479716    -0.169935    -13.272078    43.898193    0.000000    0.000000    0.000000    -30.326466    -12.714586    -18.040983    4.092984    32.617702    -6.691941    19.571350    -10.778340    7.141907    0.000000    0.000000    0.000000    
24.672636    146.365952    48.478203    5.130950    3.121017    -61.031879    -0.436135    -1.041613    -0.036198    1.177364    0.399541    -0.017550    20.462461    7.311147    20.525322    -16.305456    2.103361    17.718487    13.249957    0.017815    -16.003578    -1.777891    -9.870616    -20.909460    -5.187638    -0.858189    -87.940651    -3.208871    -5.118384    -26.082359    -4.715055    6.607018    -6.267276    19.330959    11.784925    38.955498    49.781296    11.011559    54.070747    13.207521    -12.913700    29.971642    36.965530    -23.183107    30.367378    -30.302948    41.579903    5.497793    -0.190398    -13.286376    43.906002    0.000000    0.000000    0.000000    -30.319170    -12.702500    -18.044458    4.095513    32.619091    -6.676150    19.648252    -10.808248    7.060868    0.000000    0.000000    0.000000    
24.660549    146.368500    48.477783    5.142944    3.124099    -61.041084    -0.451605    -1.045256    -0.032303    1.200005    0.394913    -0.014042    20.462788    7.311701    20.533979    -16.329853    2.106014    17.725142    13.235859    0.012347    -16.000097    -1.777209    -9.850532    -20.898880    -5.173787    -0.861884    -87.958778    -3.175131    -5.119761    -26.033529    -4.727107    6.611325    -6.269362    19.348465    11.745742    38.973091    49.812923    11.037815    54.056007    13.184916    -12.899422    30.017281    36.967491    -23.189993    30.369360    -30.298096    41.587616    5.489181    -0.211912    -13.298597    43.926643    0.000000    0.000000    0.000000    -30.321703    -12.712957    -18.039629    4.096866    32.610298    -6.681683    19.564611    -10.778254    7.142236    0.000000    0.000000    0.000000    
24.646194    146.370911    48.479591    5.142928    3.131452    -61.046059    -0.435987    -1.042077    -0.022208    1.187663    0.387816    -0.019825    20.459908    7.327957    20.531199    -16.337355    2.080052    17.720970    13.239453    0.023857    -15.996301    -1.777655    -9.858794    -20.892776    -5.179393    -0.858040    -87.961937    -3.191707    -5.116938    -26.065691    -4.727102    6.611301    -6.263351    19.352512    11.753660    38.956505    49.799862    11.047756    54.130196    13.168738    -12.934661    29.981747    36.980591    -23.188238    30.342529    -30.322926    41.585625    5.510497    -0.209134    -13.292053    43.928677    0.000000    0.000000    0.000000    -30.308956    -12.717103    -18.041447    4.094576    32.619694    -6.680807    19.638870    -10.808173    7.053784    0.000000    0.000000    0.000000    
24.634987    146.374100    48.479305    5.153216    3.138906    -61.048679    -0.430065    -1.042480    -0.022189    1.183314    0.376492    -0.016388    20.467136    7.328822    20.531347    -16.358175    2.083447    17.718636    13.238143    0.019305    -15.997730    -1.777058    -9.877454    -20.878195    -5.207344    -0.809462    -87.984726    -3.167446    -5.103839    -26.030964    -4.725198    6.607133    -6.263095    19.358362    11.721207    38.967834    49.833954    11.082289    54.116550    13.133159    -12.921088    30.002363    36.982121    -23.195744    30.336699    -30.314369    41.578892    5.499016    -0.221351    -13.291506    43.940651    0.000000    0.000000    0.000000    -30.300922    -12.727576    -18.052895    4.070000    32.621971    -6.642123    19.656815    -10.818801    7.061203    0.000000    0.000000    0.000000    
24.624260    146.376114    48.478939    5.159276    3.145444    -61.053955    -0.427394    -1.040319    -0.022188    1.182245    0.369167    -0.013329    20.485580    7.339954    20.535242    -16.392832    2.071335    17.717384    13.243619    0.027822    -15.992809    -1.778929    -9.859220    -20.865673    -5.191643    -0.835379    -88.003975    -3.178291    -5.113917    -26.030066    -4.729988    6.594275    -6.257412    19.361965    11.728903    38.959831    49.830551    11.098706    54.153709    13.136662    -12.925452    29.991730    36.982098    -23.196398    30.341675    -30.305721    41.566265    5.522066    -0.224144    -13.297241    43.933865    0.000000    0.000000    0.000000    -30.291445    -12.738905    -18.038317    4.074533    32.628246    -6.645885    19.647209    -10.822006    7.038983    0.000000    0.000000    0.000000    
24.613792    146.375900    48.480682    5.166558    3.147799    -61.050751    -0.425132    -1.039038    -0.022124    1.182189    0.362778    -0.013166    20.479567    7.349553    20.539049    -16.399776    2.049485    17.719816    13.237707    0.031121    -15.995367    -1.779012    -9.860463    -20.858978    -5.192643    -0.829444    -88.020660    -3.177887    -5.110170    -26.040138    -4.734594    6.591369    -6.254583    19.386042    11.496836    39.013378    50.147270    11.231097    53.829430    13.064240    -12.805043    30.110878    36.980186    -23.203714    30.333239    -30.303226    41.567268    5.527233    -0.228284    -13.301845    43.931004    0.000000    0.000000    0.000000    -30.291319    -12.737122    -18.019150    4.079809    32.615452    -6.637260    19.578737    -10.802456    7.083868    0.000000    0.000000    0.000000    
24.596943    146.376251    48.477615    5.172017    3.144327    -61.051579    -0.440789    -1.039658    -0.012387    1.189790    0.364368    -0.020112    20.464315    7.329135    20.534307    -16.363384    2.061279    17.718290    13.233085    0.030030    -16.003805    -1.769917    -9.875107    -20.838711    -5.210955    -0.792970    -88.037033    -3.165187    -5.094093    -26.103807    -4.731496    6.584653    -6.254668    19.378582    11.484133    39.018349    50.175854    11.242141    53.828480    13.078615    -12.804585    30.139559    36.975269    -23.198997    30.341724    -30.292936    41.564564    5.517956    -0.224463    -13.296431    43.930157    0.000000    0.000000    0.000000    -30.287794    -12.733160    -18.014170    4.072035    32.614220    -6.621877    19.580919    -10.835448    7.075012    0.000000    0.000000    0.000000    
